<svg xmlns="http://www.w3.org/2000/svg" xmlns:xlink="http://www.w3.org/1999/xlink" width="96" zoomAndPan="magnify" viewBox="0 0 72 72" height="96" preserveAspectRatio="xMidYMid meet" version="1.0"><defs><filter x="0%" y="0%" width="100%" height="100%" id="4851332a3a"><feColorMatrix values="0 0 0 0 1 0 0 0 0 1 0 0 0 0 1 0 0 0 1 0" color-interpolation-filters="sRGB"/></filter><mask id="013afa23c8"><g filter="url(#4851332a3a)"><rect x="-7.2" width="86.4" fill="#000000" y="-7.2" height="86.4" fill-opacity="0.85"/></g></mask><clipPath id="13c4534996"><path d="M 0 0 L 72 0 L 72 72 L 0 72 Z M 0 0 " clip-rule="nonzero"/></clipPath><clipPath id="34e347020d"><path d="M 3 0 L 69 0 C 70.65625 0 72 1.34375 72 3 L 72 69 C 72 70.65625 70.65625 72 69 72 L 3 72 C 1.34375 72 0 70.65625 0 69 L 0 3 C 0 1.34375 1.34375 0 3 0 Z M 3 0 " clip-rule="nonzero"/></clipPath><clipPath id="aeb20ab7fd"><rect x="0" width="72" y="0" height="72"/></clipPath><clipPath id="9629fbb307"><path d="M 6 29 L 66 29 L 66 61.398438 L 6 61.398438 Z M 6 29 " clip-rule="nonzero"/></clipPath><clipPath id="32b9483170"><path d="M 5.0625 10.398438 L 66.5625 10.398438 L 66.5625 61.398438 L 5.0625 61.398438 Z M 5.0625 10.398438 " clip-rule="nonzero"/></clipPath></defs><g mask="url(#013afa23c8)"><g transform="matrix(1, 0, 0, 1, 0, -0.000000000000001479)"><g clip-path="url(#aeb20ab7fd)"><g clip-path="url(#13c4534996)"><g clip-path="url(#34e347020d)"><rect x="-15.84" width="103.68" fill="#000000" height="103.68" y="-15.84" fill-opacity="1"/></g></g></g></g></g><g clip-path="url(#9629fbb307)"><path stroke-linecap="round" transform="matrix(2.120689, 0, 0, 2.124916, 5.062818, 10.397822)" fill="none" stroke-linejoin="round" d="M 1.583946 17.71974 C 1.583946 16.943974 1.755249 16.173723 2.210216 15.545022 C 3.54933 13.695684 7.18354 9.916123 14.499852 9.916123 C 21.818005 9.916123 25.450374 13.695684 26.789487 15.545022 C 27.244454 16.173723 27.417599 16.943974 27.417599 17.71974 C 27.417599 19.076411 26.877902 20.376095 25.918234 21.335692 C 24.960409 22.295289 23.659977 22.833913 22.304286 22.833913 L 6.697259 22.833913 C 5.339726 22.833913 4.039294 22.295289 3.081469 21.335692 C 2.121802 20.376095 1.583946 19.076411 1.583946 17.71974 Z M 1.583946 17.71974 " stroke="#fbedca" stroke-width="2" stroke-opacity="1" stroke-miterlimit="4"/></g><path stroke-linecap="round" transform="matrix(2.120689, 0, 0, 2.124916, 5.062818, 10.397822)" fill="none" stroke-linejoin="miter" d="M 6.750677 2.812901 L 6.750677 5.395723 " stroke="#fbedca" stroke-width="2" stroke-opacity="1" stroke-miterlimit="4"/><path stroke-linecap="round" transform="matrix(2.120689, 0, 0, 2.124916, 5.062818, 10.397822)" fill="none" stroke-linejoin="miter" d="M 8.041899 11.208453 L 8.041899 13.791276 " stroke="#fbedca" stroke-width="2" stroke-opacity="1" stroke-miterlimit="4"/><path stroke-linecap="round" transform="matrix(2.120689, 0, 0, 2.124916, 5.062818, 10.397822)" fill="none" stroke-linejoin="miter" d="M 22.250869 2.812901 L 22.250869 5.395723 " stroke="#fbedca" stroke-width="2" stroke-opacity="1" stroke-miterlimit="4"/><path stroke-linecap="round" transform="matrix(2.120689, 0, 0, 2.124916, 5.062818, 10.397822)" fill="none" stroke-linejoin="miter" d="M 20.957805 11.208453 L 20.957805 13.791276 " stroke="#fbedca" stroke-width="2" stroke-opacity="1" stroke-miterlimit="4"/><path stroke-linecap="round" transform="matrix(2.120689, 0, 0, 2.124916, 5.062818, 10.397822)" fill="none" stroke-linejoin="miter" d="M 14.499852 1.52057 L 14.499852 5.395723 " stroke="#fbedca" stroke-width="2" stroke-opacity="1" stroke-miterlimit="4"/><path stroke-linecap="round" transform="matrix(2.120689, 0, 0, 2.124916, 5.062818, 10.397822)" fill="none" stroke-linejoin="miter" d="M 14.499852 9.916123 L 14.499852 15.083606 " stroke="#fbedca" stroke-width="2" stroke-opacity="1" stroke-miterlimit="4"/><g clip-path="url(#32b9483170)"><path stroke-linecap="round" transform="matrix(2.120689, 0, 0, 2.124916, 5.062818, 10.397822)" fill="none" stroke-linejoin="miter" d="M 24.833313 13.432806 C 22.834774 11.71215 19.54317 9.916123 14.499852 9.916123 C 9.456533 9.916123 6.16493 11.71215 4.16639 13.432806 " stroke="#fbedca" stroke-width="2" stroke-opacity="1" stroke-miterlimit="4"/></g></svg>