<svg width="64" height="64" viewBox="0 0 64 64" fill="none" xmlns="http://www.w3.org/2000/svg">
<path d="M26.8611 37.1388L27.2281 34.6981L27.6089 32.373L28.0038 30.1636L28.4127 28.0698L28.8355 26.0917L29.2723 24.2292C30.8256 17.9127 32.6357 13.721 34.7026 11.6541C39.5746 6.78202 47.4738 6.78202 52.3458 11.6541M26.8611 37.1388L29.3018 36.7718L31.6269 36.391L33.8363 35.9961L35.9301 35.5872L37.9082 35.1644L39.7708 34.7276C46.0872 33.1743 50.2789 31.3642 52.3458 29.2973C57.2179 24.4253 57.2179 16.5261 52.3458 11.6541M26.8611 37.1388C36.6629 33.8715 43.8509 29.9508 48.4251 25.3766C55.2864 18.5153 55.2864 14.5946 52.3458 11.6541M26.8611 37.1388C30.1284 27.337 34.0491 20.149 38.6233 15.5748C45.4846 8.71353 49.4053 8.71353 52.3458 11.6541M51.9999 12L22.6665 41.3334M19.9999 38.1189L23.9206 40.0793L25.881 44L15.099 54.782C13.475 56.406 10.8419 56.406 9.21789 54.782C7.59387 53.158 7.59387 50.5249 9.21789 48.9009L19.9999 38.1189Z" stroke="#F3DEE5" stroke-width="2" stroke-linejoin="round"/>
</svg>
