<svg width="64" height="64" viewBox="0 0 64 64" fill="none" xmlns="http://www.w3.org/2000/svg">
<path d="M35.1462 19.0399L35.9102 18.2778C36.2942 17.8939 36.695 17.5346 37.1105 17.2002C39.2976 16.9721 41.2866 17.3426 44.1868 18.317M27.7051 26.4811L28.4691 25.719C28.853 25.335 29.2538 24.9757 29.6694 24.6414C31.8564 24.4133 33.8454 24.7837 36.7457 25.7582M20.2639 33.9222L21.0279 33.1601C21.4119 32.7762 21.8127 32.4169 22.2282 32.0825C24.4153 31.8544 26.4043 32.2249 29.3045 33.1993M12.8238 41.3643L13.5868 40.6013C13.9702 40.2179 14.3704 39.8591 14.7853 39.5251C16.9724 39.2952 18.9619 39.6656 21.8634 40.6405M53.456 10.0866C56.0595 12.6901 56.0595 16.9112 53.456 19.5147L19.5149 53.4558C16.9114 56.0593 12.6903 56.0593 10.0868 53.4558C7.48328 50.8523 7.48328 46.6312 10.0868 44.0277L44.0279 10.0866C46.6314 7.48313 50.8525 7.48313 53.456 10.0866Z" stroke="#F3DEE5" stroke-width="2" stroke-linejoin="round"/>
</svg>
